# xmcd CD database file
#
# Track frame offsets:
#        150
#        12242
#        35107
#        55475
#        69862
#        83942
#        98280
#        111805
#        126370
#        140605
#        158130
#        171320
#        186835
#        202747
#        217052
#        231135
#
# Disc length: 3178 seconds
#
# Revision: 0
# Processed by: cddbd v1.5.2PL0 Copyright (c) Steve Scherf et al.
# Submitted via: CUERipper 2.1.4
#
DISCID=de0c6810
DTITLE=Harry James - Trumpet Blues: The Best Of Harry James
DYEAR=1999
DGENRE=
TTITLE0=Trumpet Blues And Cantabile
TTITLE1=James Session
TTITLE2=Moten Swing
TTITLE3=Cherry
TTITLE4=I'm Beginning To See The Light
TTITLE5=Willow Weep For Me
TTITLE6=Two O'Clock Jump
TTITLE7=Strictly Instrumental
TTITLE8=Sleepy Lagoon
TTITLE9=Barn 12
TTITLE10=I've Heard That Song Before
TTITLE11=Blues On Count
TTITLE12=You Made Me Love You
TTITLE13=Music Makers
TTITLE14=It's Been A Long, Long Time
TTITLE15=Ciribiribin (They're So In Love), Pts. 1 and 2
EXTD=
EXTT0=
EXTT1=
EXTT2=
EXTT3=
EXTT4=
EXTT5=
EXTT6=
EXTT7=
EXTT8=
EXTT9=
EXTT10=
EXTT11=
EXTT12=
EXTT13=
EXTT14=
EXTT15=
PLAYORDER=
